# Blender v2.76 (sub 0) OBJ File: ''
# www.blender.org
mtllib AST.mtl
o AST
v 0.355900 1.098579 0.043165
v 0.253277 1.012392 0.298503
v -0.037072 1.104981 0.568533
v -0.207617 1.084651 0.929464
v -0.049968 0.828909 1.030934
v -0.358484 0.182913 1.139608
v -0.044991 0.556652 1.161650
v -0.317875 0.993475 -0.212501
v -0.032606 1.093987 -0.221639
v -0.589442 0.661162 -0.589535
v -0.592974 0.496531 -0.773446
v -0.782623 0.353279 -0.470398
v -0.417692 1.377617 0.450947
v -0.670481 1.150792 0.354195
v 0.224112 0.862244 0.886515
v -0.408543 1.282077 0.113492
v -0.215665 1.261756 0.614172
v -0.838288 0.884343 0.367569
v -0.695973 0.714694 0.719967
v -0.567943 1.036458 -0.173580
v -0.723989 0.764868 -0.494754
v -0.597483 0.954981 0.062263
v 0.224633 0.677885 1.014054
v 0.387242 0.186472 0.010022
v -0.283870 0.559079 -0.826542
v 0.131033 0.733721 -0.613888
v -0.115046 0.511435 -0.693697
v -0.031145 0.314141 -0.791356
v -0.246245 0.223293 -0.841098
v 0.278635 0.531251 0.407151
v 0.346718 0.671562 0.527077
v -1.160099 0.145388 0.044112
v -1.024537 0.171165 -0.302775
v -0.971689 -0.087723 -0.129461
v -0.717537 0.011009 -0.622434
v -0.561541 0.078635 -0.791495
v -0.628670 -0.258359 -0.449668
v -0.746291 -0.129825 -0.038276
v 0.287140 0.500637 -0.139650
v 0.336936 0.568264 0.103305
v -0.504811 -0.491381 0.040248
v -0.241089 0.915720 -0.703337
v -0.658825 0.694882 -0.046183
v -0.802997 0.535346 -0.157800
v -0.145467 -0.382163 -0.250423
v -0.356012 -0.431866 -0.387593
v -0.131522 -0.191687 -0.559418
v -0.605631 -0.454452 0.007068
v -0.855934 -0.115990 0.151600
v -1.077314 -0.033975 0.287643
v -0.202509 -0.243763 -0.036887
v 0.048420 -0.261127 0.009645
v -0.391476 -0.321347 0.208415
v -0.631076 -0.410597 0.651637
v -0.768228 -0.038716 0.654022
v -0.863914 -0.133193 0.483924
v -0.542527 0.065443 0.715221
v 0.366234 0.359944 0.743228
v 0.314276 0.212078 0.714125
v 0.300383 -0.169948 -0.342940
v 0.342065 0.013229 -0.249953
v 0.058541 0.301402 0.868250
v 0.314285 0.271130 0.427998
v 0.090809 -0.225480 0.566580
v 0.307004 -0.168265 0.345932
v -0.293953 1.313179 0.186314
v 0.287833 0.776602 -0.336274
v 0.252839 0.897145 -0.175699
v -0.146468 1.270824 -0.016470
v 0.174398 0.452640 -0.605494
v 0.004784 0.938350 -0.506857
v 0.219830 0.445832 -0.441865
v 0.071979 0.263843 -0.209645
v 0.415975 0.037734 -0.156879
v 0.297672 -0.110723 0.082921
v -0.083896 -0.013463 0.919668
v -0.309675 -0.008962 0.885933
v -0.689494 0.217475 0.906635
v 0.157055 -0.298372 0.164049
v -0.391147 -0.471639 0.674948
v -0.223770 -0.194441 0.802415
v -0.440205 -0.350843 0.769004
v -0.147484 -0.260308 0.593376
v -0.927377 0.069609 0.786046
v -0.562095 -0.405607 0.413200
v -0.469229 1.026544 0.822420
v -0.913443 0.464117 0.596217
v -0.657102 -0.368203 0.329328
v -0.988798 0.670656 0.209517
v -0.768188 -0.458988 0.186440
v -0.335914 -0.270863 0.379911
v 0.014269 -0.297035 -0.384983
v -0.847888 -0.153482 -0.438581
v -0.400468 -0.054799 -0.529305
v -0.729650 0.250932 -0.827708
v -0.418271 0.308258 -0.737500
v 0.143981 0.121566 -0.714412
v 0.228849 0.184843 -0.488016
v -0.389935 0.892677 -0.593799
v -0.999881 0.732283 0.386822
v -0.527855 0.624117 0.991881
v -0.236210 0.596639 1.146318
v -0.312557 0.827584 0.928221
v -0.032179 1.085574 0.325120
vn 0.560600 0.807500 0.183100
vn 0.127100 0.635200 0.761800
vn 0.101800 0.550400 0.828600
vn -0.647700 0.378800 -0.661000
vn -0.467300 0.322000 -0.823400
vn -0.863400 0.285500 -0.416000
vn 0.661400 0.577900 0.478000
vn -0.219400 0.953800 0.205500
vn -0.405200 0.828200 -0.387200
vn -0.791700 0.610800 0.012100
vn -0.788900 0.612700 0.046300
vn -0.744900 0.397900 0.535600
vn -0.587300 0.762000 -0.272700
vn -0.779400 0.395700 -0.485800
vn -0.866500 0.438100 -0.239400
vn 0.306300 -0.009000 0.951900
vn 0.727900 0.085700 0.680300
vn 0.022000 0.183700 -0.982700
vn 0.621900 0.311100 -0.718700
vn 0.538100 0.174100 -0.824700
vn 0.384000 0.090300 -0.918900
vn 0.020500 -0.215600 -0.976300
vn -0.993400 -0.011100 -0.113800
vn -0.852100 0.097000 -0.514300
vn -0.618200 -0.764500 -0.182600
vn 0.979400 0.090400 -0.180400
vn 0.930800 -0.189000 -0.312800
vn 0.998000 0.062400 0.007100
vn 0.837000 0.378300 -0.395500
vn 0.794300 0.600700 -0.090400
vn -0.095800 0.762200 -0.640200
vn -0.788900 0.563400 -0.245200
vn 0.031900 -0.861000 -0.507600
vn -0.487300 -0.803700 -0.341500
vn -0.385900 -0.704300 -0.595800
vn -0.588500 -0.806100 -0.062900
vn -0.807700 -0.567200 0.161000
vn 0.244800 -0.903600 0.351700
vn 0.340600 -0.940000 -0.019600
vn 0.307000 -0.948900 -0.072600
vn -0.627800 -0.742400 0.233900
vn 0.718000 0.633300 0.288900
vn 0.903600 -0.223800 0.365200
vn 0.590900 -0.308900 0.745200
vn 0.985700 0.167300 0.020900
vn 0.978400 0.148600 -0.143900
vn 0.408100 -0.794400 0.449900
vn 0.810500 -0.560600 0.169600
vn 0.794100 -0.312900 0.521100
vn 0.254900 0.961900 -0.098600
vn 0.902800 0.292900 -0.314800
vn -0.045800 0.831500 -0.553600
vn 0.145700 0.947500 -0.284600
vn 0.117400 0.797900 -0.591300
vn 0.761400 0.121300 -0.636800
vn 0.320400 0.824600 -0.466200
vn 0.982500 -0.166000 -0.084600
vn 0.978800 0.085500 -0.186100
vn 0.966900 0.080500 -0.242300
vn 0.931500 -0.072600 -0.356500
vn 0.802800 -0.577600 -0.148000
vn 0.963700 0.018200 -0.266400
vn 0.336100 -0.566300 0.752600
vn -0.302500 -0.599200 0.741200
vn -0.537400 -0.258300 0.802800
vn -0.354600 -0.512900 0.781800
vn 0.342900 -0.925900 -0.158300
vn 0.220400 -0.946100 0.237500
vn 0.374500 -0.568100 0.732800
vn -0.150000 -0.384200 0.911000
vn -0.834800 0.256100 0.487400
vn -0.156400 -0.959000 -0.236400
vn -0.569900 -0.718700 0.398400
vn -0.581400 -0.331900 0.742900
vn -0.475300 -0.579000 0.662400
vn -0.823000 0.497400 -0.274400
vn -0.618300 -0.767000 -0.171500
vn 0.511800 -0.838200 0.188400
vn 0.159000 -0.978000 0.134800
vn 0.366600 -0.917800 -0.152400
vn 0.376300 -0.901800 0.212500
vn -0.773100 -0.492400 -0.399800
vn -0.563900 -0.463700 -0.683400
vn -0.257300 -0.670500 -0.695800
vn 0.128800 -0.645600 -0.752800
vn -0.686100 -0.714000 0.139700
vn -0.834400 0.527200 -0.160900
vn 0.798700 -0.570700 -0.190600
vn -0.108400 -0.508100 -0.854400
vn -0.617400 -0.011600 -0.786500
vn -0.135900 0.099100 -0.985800
vn 0.551300 -0.227700 -0.802600
vn 0.978500 0.168000 -0.119400
vn -0.347400 0.778100 -0.523400
vn -0.880000 0.368900 0.299200
vn -0.570400 0.507300 0.646000
vn -0.557700 0.297700 0.774900
vn -0.248500 -0.564200 0.787400
vn -0.205500 -0.423500 0.882300
vn -0.216600 0.309200 0.926000
vn 0.291100 -0.859100 -0.421000
vn 0.429800 0.894900 0.120200
vn 0.454800 0.840700 0.293900
vn -0.292800 0.395000 0.870800
usemtl mat0
s 1
f 3//1 4//2 5//3
f 10//4 11//5 12//6
f 3//1 5//3 15//7
f 13//8 16//9 14//10
f 14//10 18//11 19//12
f 20//13 21//14 22//15
f 5//3 7//16 23//17
f 25//18 26//19 27//20
f 25//18 28//21 29//22
f 32//23 33//24 34//25
f 24//26 39//27 40//28
f 40//28 68//29 1//30
f 25//18 42//31 26//19
f 33//24 32//23 44//32
f 46//33 48//34 37//35
f 49//36 50//37 34//25
f 51//38 45//39 52//40
f 50//37 49//36 56//41
f 2//42 3//1 15//7
f 58//43 23//17 62//44
f 58//43 63//45 31//46
f 64//47 65//48 59//49
f 16//9 13//8 66//50
f 14//10 22//15 18//11
f 20//13 22//15 16//9
f 68//29 40//28 67//51
f 14//10 16//9 22//15
f 8//52 20//13 69//53
f 1//30 68//29 9//54
f 70//55 26//19 67//51
f 67//51 71//56 68//29
f 70//55 67//51 72//57
f 72//57 67//51 39//27
f 27//20 26//19 70//55
f 63//45 40//28 30//58
f 72//57 39//27 73//59
f 74//60 24//26 75//61
f 61//62 24//26 74//60
f 63//45 24//26 40//28
f 62//44 76//63 59//49
f 77//64 78//65 57//66
f 59//49 24//26 63//45
f 24//26 65//48 75//61
f 79//67 75//61 65//48
f 64//47 59//49 76//63
f 80//68 81//69 82//70
f 76//63 62//44 7//16
f 57//66 82//70 77//64
f 19//12 18//11 87//71
f 85//72 54//73 56//41
f 50//37 56//41 84//74
f 49//36 88//75 85//72
f 87//71 89//76 32//23
f 49//36 85//72 56//41
f 32//23 34//25 50//37
f 49//36 34//25 38//77
f 88//75 53//78 85//72
f 41//79 53//78 88//75
f 91//80 83//81 80//68
f 51//38 83//81 91//80
f 51//38 79//67 83//81
f 46//33 45//39 41//79
f 51//38 52//40 79//67
f 79//67 65//48 64//47
f 93//82 35//83 37//35
f 91//80 53//78 51//38
f 37//35 38//77 34//25
f 37//35 48//34 38//77
f 94//84 47//85 37//35
f 34//25 93//82 37//35
f 35//83 93//82 34//25
f 49//36 90//86 88//75
f 34//25 33//24 35//83
f 21//14 44//32 43//87
f 60//88 61//62 52//40
f 36//89 95//90 96//91
f 95//90 36//89 35//83
f 95//90 35//83 12//6
f 47//85 28//21 97//92
f 98//93 60//88 97//92
f 33//24 12//6 35//83
f 11//5 95//90 12//6
f 98//93 70//55 72//57
f 28//21 47//85 29//22
f 99//94 42//31 25//18
f 21//14 12//6 44//32
f 25//18 11//5 99//94
f 71//56 42//31 99//94
f 96//91 25//18 29//22
f 96//91 29//22 36//89
f 47//85 36//89 29//22
f 97//92 28//21 70//55
f 18//11 43//87 89//76
f 28//21 25//18 27//20
f 36//89 94//84 35//83
f 25//18 96//91 11//5
f 11//5 96//91 95//90
f 73//59 39//27 24//26
f 42//31 71//56 26//19
f 98//93 73//59 61//62
f 98//93 97//92 70//55
f 60//88 98//93 61//62
f 39//27 67//51 40//28
f 8//52 71//56 99//94
f 69//53 20//13 16//9
f 20//13 99//94 21//14
f 8//52 99//94 20//13
f 8//52 69//53 9//54
f 16//9 66//50 69//53
f 18//11 89//76 100//95
f 87//71 18//11 100//95
f 87//71 32//23 84//74
f 78//65 87//71 84//74
f 86//96 19//12 101//97
f 87//71 100//95 89//76
f 54//73 55//98 56//41
f 101//97 6//99 102//100
f 84//74 32//23 50//37
f 14//10 19//12 13//8
f 89//76 44//32 32//23
f 55//98 84//74 56//41
f 55//98 78//65 84//74
f 85//72 53//78 91//80
f 85//72 80//68 54//73
f 48//34 46//33 41//79
f 90//86 49//36 38//77
f 90//86 38//77 48//34
f 88//75 90//86 41//79
f 85//72 91//80 80//68
f 41//79 51//38 53//78
f 81//69 83//81 76//63
f 83//81 79//67 64//47
f 76//63 83//81 64//47
f 82//70 81//69 77//64
f 58//43 59//49 63//45
f 81//69 80//68 83//81
f 24//26 59//49 65//48
f 30//58 31//46 63//45
f 80//68 82//70 54//73
f 76//63 77//64 81//69
f 74//60 75//61 61//62
f 45//39 46//33 47//85
f 45//39 92//101 60//88
f 51//38 41//79 45//39
f 60//88 52//40 45//39
f 57//66 55//98 82//70
f 94//84 37//35 35//83
f 48//34 41//79 90//86
f 23//17 15//7 5//3
f 79//67 52//40 75//61
f 92//101 47//85 97//92
f 61//62 75//61 52//40
f 6//99 76//63 7//16
f 61//62 73//59 24//26
f 92//101 45//39 47//85
f 92//101 97//92 60//88
f 15//7 58//43 31//46
f 62//44 59//49 58//43
f 62//44 23//17 7//16
f 70//55 28//21 27//20
f 31//46 2//42 15//7
f 104//102 1//30 69//53
f 71//56 9//54 68//29
f 21//14 99//94 10//4
f 67//51 26//19 71//56
f 9//54 69//53 1//30
f 9//54 71//56 8//52
f 21//14 10//4 12//6
f 10//4 99//94 11//5
f 13//8 17//103 66//50
f 66//50 17//103 3//1
f 17//103 4//2 3//1
f 72//57 73//59 98//93
f 104//102 2//42 1//30
f 30//58 2//42 31//46
f 47//85 94//84 36//89
f 47//85 46//33 37//35
f 3//1 2//42 104//102
f 23//17 58//43 15//7
f 30//58 1//30 2//42
f 3//1 104//102 66//50
f 17//103 13//8 4//2
f 103//104 5//3 4//2
f 66//50 104//102 69//53
f 1//30 30//58 40//28
f 102//100 5//3 103//104
f 101//97 103//104 86//96
f 7//16 102//100 6//99
f 5//3 102//100 7//16
f 103//104 4//2 86//96
f 86//96 4//2 13//8
f 6//99 78//65 77//64
f 82//70 55//98 54//73
f 6//99 77//64 76//63
f 78//65 101//97 87//71
f 19//12 87//71 101//97
f 78//65 55//98 57//66
f 78//65 6//99 101//97
f 103//104 101//97 102//100
f 89//76 43//87 44//32
f 33//24 44//32 12//6
f 22//15 43//87 18//11
f 21//14 43//87 22//15
f 13//8 19//12 86//96
